<svg viewBox="0 0 1100 780" xmlns="http://www.w3.org/2000/svg" role="img" aria-label="El grafo del runtime: 298 nodos repartidos en cuatro sectores, uno por pilar fundacional, con las bases al centro y las sub-ramas fuera. Los nodos generados desde Mathlib van en tono mas claro porque no estan interpretados. Las nueve tacticas se dibujan aparte abajo porque son sumideros: reciben 453 aristas y no emiten ninguna.">
<style>svg{color:#1b1e17}.e{stroke:currentColor;opacity:.13;fill:none}.n{stroke:none}.g{fill:#564c9e}.c{fill:#167a68}.l{fill:#b4761f}.t{fill:#ae3b35}.cob{opacity:.42}.sm{font:10px ui-sans-serif,system-ui;fill:currentColor;opacity:.62}.tt{font:600 12px ui-monospace,monospace;fill:currentColor}@media(prefers-color-scheme:dark){svg{color:#e8e6de}.g{fill:#948bdd}.c{fill:#4dc0aa}.l{fill:#e2a94f}.t{fill:#e2827a}.e{opacity:.18}}</style>
<path class="e" d="M550 322 Q550 322 549 322"/>
<path class="e" d="M490 422 Q489 421 488 420"/>
<path class="e" d="M488 420 Q485 419 483 417"/>
<path class="e" d="M488 420 Q486 420 486 419"/>
<path class="e" d="M512 315 Q514 314 516 314"/>
<path class="e" d="M466 351 Q466 349 467 348"/>
<path class="e" d="M466 351 Q505 326 550 322"/>
<path class="e" d="M550 322 Q578 302 613 296"/>
<path class="e" d="M550 322 Q583 305 619 305"/>
<path class="e" d="M613 296 Q617 300 619 305"/>
<path class="e" d="M619 305 Q614 300 611 294"/>
<path class="e" d="M619 305 Q616 302 615 299"/>
<path class="e" d="M619 305 Q609 297 603 285"/>
<path class="e" d="M615 299 Q607 293 603 285"/>
<path class="e" d="M550 322 Q579 302 614 297"/>
<path class="e" d="M550 322 Q576 300 610 293"/>
<path class="e" d="M610 293 Q615 297 618 302"/>
<path class="e" d="M550 322 Q582 305 619 304"/>
<path class="e" d="M619 304 Q609 297 604 286"/>
<path class="e" d="M550 322 Q580 303 616 300"/>
<path class="e" d="M467 348 Q439 332 421 305"/>
<path class="e" d="M466 351 Q439 330 425 299"/>
<path class="e" d="M550 322 Q575 299 608 290"/>
<path class="e" d="M550 322 Q576 300 609 292"/>
<path class="e" d="M550 322 Q578 301 612 295"/>
<path class="e" d="M619 304 Q617 303 617 301"/>
<path class="e" d="M549 322 Q574 298 606 288"/>
<path class="e" d="M616 300 Q610 295 606 288"/>
<path class="e" d="M467 348 Q437 338 414 316"/>
<path class="e" d="M414 316 Q415 313 417 310"/>
<path class="e" d="M512 315 Q508 282 520 252"/>
<path class="e" d="M516 314 Q515 282 528 252"/>
<path class="e" d="M619 304 Q610 297 605 287"/>
<path class="e" d="M612 295 Q609 293 607 289"/>
<path class="e" d="M609 292 Q608 291 607 289"/>
<path class="e" d="M615 299 Q518 420 377 484"/>
<path class="e" d="M488 420 Q440 466 377 484"/>
<path class="e" d="M613 296 Q640 414 610 530"/>
<path class="e" d="M615 299 Q640 415 610 530"/>
<path class="e" d="M619 304 Q646 286 678 282"/>
<path class="e" d="M616 300 Q645 283 678 282"/>
<path class="e" d="M603 285 Q524 419 393 502"/>
<path class="e" d="M488 420 Q450 473 393 502"/>
<path class="e" d="M678 282 Q672 416 606 532"/>
<path class="e" d="M619 304 Q640 420 606 532"/>
<path class="e" d="M604 286 Q640 274 677 280"/>
<path class="e" d="M678 282 Q677 281 677 280"/>
<path class="e" d="M619 304 Q649 289 683 290"/>
<path class="e" d="M616 300 Q648 287 683 290"/>
<path class="e" d="M619 304 Q650 291 685 294"/>
<path class="e" d="M683 290 Q684 292 685 294"/>
<path class="e" d="M619 304 Q644 415 616 527"/>
<path class="e" d="M683 290 Q678 416 616 527"/>
<path class="e" d="M683 290 Q524 384 339 394"/>
<path class="e" d="M488 420 Q410 425 339 394"/>
<path class="e" d="M616 300 Q525 426 387 497"/>
<path class="e" d="M488 420 Q447 470 387 497"/>
<path class="e" d="M616 300 Q646 284 679 284"/>
<path class="e" d="M678 282 Q679 283 679 284"/>
<path class="e" d="M387 497 Q374 486 367 471"/>
<path class="e" d="M488 420 Q434 460 367 471"/>
<path class="e" d="M616 300 Q649 288 684 292"/>
<path class="e" d="M387 497 Q511 359 684 292"/>
<path class="e" d="M512 315 Q514 249 545 192"/>
<path class="e" d="M367 471 Q423 310 545 192"/>
<path class="e" d="M619 305 Q643 283 673 274"/>
<path class="e" d="M611 294 Q640 276 673 274"/>
<path class="e" d="M604 286 Q638 273 675 276"/>
<path class="e" d="M608 290 Q640 275 675 276"/>
<path class="e" d="M393 502 Q508 356 676 278"/>
<path class="e" d="M673 274 Q675 276 676 278"/>
<path class="e" d="M611 294 Q642 278 676 278"/>
<path class="e" d="M609 292 Q639 410 612 529"/>
<path class="e" d="M612 295 Q640 412 612 529"/>
<path class="e" d="M612 295 Q646 283 682 288"/>
<path class="e" d="M613 296 Q640 277 672 272"/>
<path class="e" d="M609 292 Q638 274 672 272"/>
<path class="e" d="M617 301 Q643 415 614 528"/>
<path class="e" d="M609 292 Q640 409 614 528"/>
<path class="e" d="M617 301 Q640 417 608 531"/>
<path class="e" d="M617 301 Q651 291 686 296"/>
<path class="e" d="M617 301 Q647 286 680 286"/>
<path class="e" d="M616 300 Q647 285 680 286"/>
<path class="e" d="M488 420 Q443 468 382 491"/>
<path class="e" d="M483 417 Q442 466 382 491"/>
<path class="e" d="M488 420 Q437 463 372 478"/>
<path class="e" d="M486 419 Q436 462 372 478"/>
<path class="e" d="M683 290 Q672 421 604 534"/>
<path class="e" d="M616 527 Q611 532 604 534"/>
<path class="e" d="M619 304 Q639 420 604 534"/>
<path class="e" d="M466 351 Q431 288 428 215"/>
<path class="e" d="M614 297 Q630 459 571 611"/>
<path class="e" d="M571 611 Q592 598 616 597"/>
<path class="e" d="M614 297 Q604 468 518 616"/>
<path class="e" d="M614 297 Q653 445 621 594"/>
<path class="e" d="M613 296 Q547 467 410 590"/>
<path class="e" d="M613 296 Q613 465 537 615"/>
<path class="e" d="M537 615 Q491 621 448 605"/>
<path class="e" d="M613 296 Q615 464 540 615"/>
<path class="e" d="M540 615 Q471 618 408 589"/>
<path class="e" d="M613 296 Q657 441 630 590"/>
<path class="e" d="M613 296 Q622 462 556 613"/>
<path class="e" d="M448 605 Q432 603 419 594"/>
<path class="e" d="M619 305 Q609 472 525 616"/>
<path class="e" d="M619 305 Q579 476 466 610"/>
<path class="e" d="M525 616 Q458 615 399 584"/>
<path class="e" d="M525 616 Q512 619 500 615"/>
<path class="e" d="M525 616 Q503 620 481 613"/>
<path class="e" d="M611 294 Q626 458 565 612"/>
<path class="e" d="M565 612 Q558 615 550 614"/>
<path class="e" d="M419 594 Q487 588 550 614"/>
<path class="e" d="M565 612 Q563 612 562 612"/>
<path class="e" d="M565 612 Q487 620 413 591"/>
<path class="e" d="M615 299 Q629 461 568 611"/>
<path class="e" d="M615 299 Q545 468 405 587"/>
<path class="e" d="M615 299 Q573 472 457 608"/>
<path class="e" d="M610 530 Q618 565 610 599"/>
<path class="e" d="M608 290 Q631 454 577 609"/>
<path class="e" d="M577 609 Q520 623 463 609"/>
<path class="e" d="M577 609 Q531 622 484 613"/>
<path class="e" d="M484 613 Q532 599 580 608"/>
<path class="e" d="M484 613 Q467 614 451 606"/>
<path class="e" d="M673 274 Q616 467 478 612"/>
<path class="e" d="M565 612 Q522 623 478 612"/>
<path class="e" d="M478 612 Q503 608 528 616"/>
<path class="e" d="M478 612 Q477 612 475 612"/>
<path class="e" d="M675 276 Q607 468 460 608"/>
<path class="e" d="M675 276 Q594 467 436 601"/>
<path class="e" d="M619 304 Q557 473 424 597"/>
<path class="e" d="M619 304 Q600 473 506 616"/>
<path class="e" d="M506 616 Q544 602 583 608"/>
<path class="e" d="M506 616 Q471 617 439 602"/>
<path class="e" d="M619 304 Q590 474 487 614"/>
<path class="e" d="M619 304 Q592 474 490 614"/>
<path class="e" d="M490 614 Q502 612 512 616"/>
<path class="e" d="M604 286 Q607 460 531 616"/>
<path class="e" d="M531 616 Q560 603 592 605"/>
<path class="e" d="M592 605 Q517 622 442 603"/>
<path class="e" d="M531 616 Q563 601 598 603"/>
<path class="e" d="M683 290 Q690 448 624 593"/>
<path class="e" d="M683 290 Q647 471 534 616"/>
<path class="e" d="M534 616 Q472 618 416 593"/>
<path class="e" d="M616 300 Q646 452 604 601"/>
<path class="e" d="M616 300 Q642 455 595 604"/>
<path class="e" d="M616 300 Q557 471 427 598"/>
<path class="e" d="M387 497 Q484 535 553 614"/>
<path class="e" d="M553 614 Q570 606 589 606"/>
<path class="e" d="M630 590 Q425 517 276 358"/>
<path class="e" d="M616 300 Q451 353 280 326"/>
<path class="e" d="M377 484 Q310 416 280 326"/>
<path class="e" d="M676 278 Q484 349 280 326"/>
<path class="e" d="M678 282 Q587 469 422 595"/>
<path class="e" d="M422 595 Q428 596 433 600"/>
<path class="e" d="M422 595 Q505 581 586 607"/>
<path class="e" d="M393 502 Q521 519 627 591"/>
<path class="e" d="M525 616 Q573 591 627 591"/>
<path class="e" d="M627 591 Q542 620 454 607"/>
<path class="e" d="M454 607 Q441 606 430 599"/>
<path class="e" d="M610 293 Q541 464 402 586"/>
<path class="e" d="M610 293 Q645 447 607 600"/>
<path class="e" d="M488 420 Q373 381 289 294"/>
<path class="e" d="M488 420 Q377 426 276 380"/>
<path class="e" d="M486 419 Q372 385 286 304"/>
<path class="e" d="M276 380 Q272 358 279 336"/>
<path class="e" d="M486 419 Q378 430 277 391"/>
<path class="e" d="M568 611 Q396 536 277 391"/>
<path class="e" d="M276 380 Q273 364 277 347"/>
<path class="e" d="M276 380 Q272 347 283 315"/>
<path class="e" d="M421 305 Q407 223 432 144"/>
<path class="e" d="M432 144 Q450 134 471 133"/>
<path class="e" d="M425 299 Q422 214 458 136"/>
<path class="e" d="M425 299 Q416 217 445 140"/>
<path class="e" d="M550 322 Q614 453 613 598"/>
<path class="e" d="M613 598 Q588 612 559 613"/>
<path class="e" d="M613 598 Q566 619 515 616"/>
<path class="e" d="M609 292 Q617 461 546 615"/>
<path class="e" d="M609 292 Q604 464 522 616"/>
<path class="e" d="M609 292 Q579 468 472 611"/>
<path class="e" d="M612 295 Q616 463 543 615"/>
<path class="e" d="M612 295 Q591 469 494 615"/>
<path class="e" d="M612 295 Q578 470 469 611"/>
<path class="e" d="M617 301 Q567 473 445 604"/>
<path class="e" d="M445 604 Q478 602 509 616"/>
<path class="e" d="M445 604 Q523 584 601 602"/>
<path class="e" d="M490 614 Q544 595 601 602"/>
<path class="e" d="M608 531 Q562 586 497 615"/>
<path class="e" d="M608 531 Q621 562 618 595"/>
<path class="e" d="M414 316 Q505 210 635 157"/>
<path class="e" d="M635 157 Q626 155 619 149"/>
<path class="e" d="M417 310 Q490 204 603 143"/>
<path class="e" d="M512 315 Q528 217 587 137"/>
<path class="e" d="M605 287 Q593 464 503 615"/>
<path class="e" d="M605 287 Q628 452 574 610"/>
<path class="e" d="M568 611 Q457 571 377 484"/>
<path class="e" d="M377 484 Q313 439 276 369"/>
<path class="e" d="M568 611 Q393 525 276 369"/>
<path class="e" d="M387 497 Q316 446 276 369"/>
<path class="e" d="M276 369 Q275 364 276 358"/>
<path class="e" d="M276 369 Q275 364 276 358"/>
<path class="e" d="M377 484 Q373 482 372 478"/>
<path class="e" d="M393 502 Q379 493 372 478"/>
<path class="e" d="M540 615 Q565 564 610 530"/>
<path class="e" d="M550 322 Q560 292 583 270"/>
<path class="e" d="M583 270 Q645 424 630 590"/>
<path class="e" d="M583 270 Q595 275 603 285"/>
<path class="e" d="M583 270 Q442 357 276 369"/>
<path class="e" d="M583 270 Q621 440 577 609"/>
<path class="e" d="M583 270 Q618 442 571 611"/>
<path class="e" d="M583 270 Q617 442 568 611"/>
<path class="e" d="M583 270 Q600 279 611 294"/>
<path class="e" d="M583 270 Q614 444 562 612"/>
<path class="e" d="M583 270 Q603 448 540 615"/>
<path class="e" d="M583 270 Q601 280 613 296"/>
<path class="e" d="M583 270 Q506 402 377 484"/>
<path class="e" d="M583 270 Q602 280 614 297"/>
<path class="e" d="M583 270 Q561 454 457 608"/>
<path class="e" d="M583 270 Q606 283 619 305"/>
<path class="e" d="M583 270 Q538 451 416 593"/>
<path class="e" d="M583 270 Q535 451 410 590"/>
<path class="e" d="M550 322 Q561 292 585 271"/>
<path class="e" d="M585 271 Q644 426 627 591"/>
<path class="e" d="M585 271 Q517 410 393 502"/>
<path class="e" d="M585 271 Q631 263 676 278"/>
<path class="e" d="M585 271 Q547 453 430 599"/>
<path class="e" d="M550 322 Q562 293 586 272"/>
<path class="e" d="M586 272 Q514 408 387 497"/>
<path class="e" d="M586 272 Q510 406 382 491"/>
<path class="e" d="M550 322 Q563 293 587 273"/>
<path class="e" d="M587 273 Q644 428 624 593"/>
<path class="e" d="M587 273 Q597 277 604 286"/>
<path class="e" d="M587 273 Q601 280 610 293"/>
<path class="e" d="M587 273 Q602 450 534 616"/>
<path class="e" d="M587 273 Q594 453 518 616"/>
<path class="e" d="M587 273 Q478 363 339 394"/>
<path class="e" d="M490 422 Q470 448 440 462"/>
<path class="e" d="M440 462 Q350 446 277 391"/>
<path class="e" d="M440 462 Q460 436 490 422"/>
<path class="e" d="M440 462 Q459 435 488 420"/>
<path class="e" d="M440 462 Q346 430 276 358"/>
<path class="e" d="M440 462 Q408 478 372 478"/>
<path class="e" d="M440 462 Q344 418 279 336"/>
<path class="e" d="M440 462 Q344 407 283 315"/>
<path class="e" d="M550 322 Q563 293 588 273"/>
<path class="e" d="M588 273 Q603 281 612 295"/>
<path class="e" d="M588 273 Q571 456 472 611"/>
<path class="e" d="M550 322 Q564 294 590 274"/>
<path class="e" d="M590 274 Q618 446 565 612"/>
<path class="e" d="M590 274 Q610 449 550 614"/>
<path class="e" d="M550 322 Q565 294 591 275"/>
<path class="e" d="M591 275 Q635 268 678 282"/>
<path class="e" d="M591 275 Q636 269 679 284"/>
<path class="e" d="M591 275 Q551 457 433 600"/>
<path class="e" d="M591 275 Q545 456 422 595"/>
<path class="e" d="M550 322 Q565 294 592 276"/>
<path class="e" d="M592 276 Q614 449 556 613"/>
<path class="e" d="M592 276 Q544 456 419 594"/>
<path class="e" d="M592 276 Q537 454 408 589"/>
<path class="e" d="M550 322 Q566 294 593 277"/>
<path class="e" d="M593 277 Q645 432 621 594"/>
<path class="e" d="M593 277 Q609 287 618 302"/>
<path class="e" d="M593 277 Q535 454 402 586"/>
<path class="e" d="M550 322 Q567 295 595 278"/>
<path class="e" d="M595 278 Q601 282 606 288"/>
<path class="e" d="M595 278 Q583 459 490 614"/>
<path class="e" d="M550 322 Q568 295 596 279"/>
<path class="e" d="M596 279 Q634 267 673 274"/>
<path class="e" d="M596 279 Q577 460 478 612"/>
<path class="e" d="M596 279 Q575 460 475 612"/>
<path class="e" d="M550 322 Q568 295 597 280"/>
<path class="e" d="M597 280 Q587 459 497 615"/>
<path class="e" d="M597 280 Q643 278 686 296"/>
<path class="e" d="M597 280 Q609 288 617 301"/>
<path class="e" d="M597 280 Q633 404 608 531"/>
<path class="e" d="M550 322 Q569 296 598 281"/>
<path class="e" d="M598 281 Q634 404 610 530"/>
<path class="e" d="M550 322 Q570 296 599 282"/>
<path class="e" d="M599 282 Q602 458 525 616"/>
<path class="e" d="M599 282 Q580 462 481 613"/>
<path class="e" d="M599 282 Q536 457 399 584"/>
<path class="e" d="M550 322 Q570 297 600 283"/>
<path class="e" d="M600 283 Q598 460 515 616"/>
<path class="e" d="M600 283 Q580 309 549 322"/>
<path class="e" d="M550 322 Q571 297 602 284"/>
<path class="e" d="M602 284 Q641 442 604 601"/>
<path class="e" d="M602 284 Q637 445 595 604"/>
<path class="e" d="M602 284 Q634 446 589 606"/>
<path class="e" d="M602 284 Q643 277 683 290"/>
<path class="e" d="M602 284 Q644 279 685 294"/>
<path class="e" d="M602 284 Q584 463 487 614"/>
<path class="e" d="M602 284 Q611 290 616 300"/>
<path class="e" d="M602 284 Q552 462 427 598"/>
<path class="e" d="M613 296 Q617 300 619 305"/>
<path class="e" d="M613 296 Q617 300 619 305"/>
<path class="e" d="M613 296 Q617 300 619 305"/>
<path class="e" d="M619 305 Q614 300 611 294"/>
<path class="e" d="M619 305 Q614 300 611 294"/>
<path class="e" d="M619 305 Q614 300 611 294"/>
<circle class="n g" cx="550" cy="322" r="5.5"/>
<circle class="n g" cx="549" cy="322" r="5.5"/>
<circle class="n c" cx="490" cy="422" r="5.5"/>
<circle class="n c" cx="488" cy="420" r="5.5"/>
<circle class="n c" cx="483" cy="417" r="5.5"/>
<circle class="n c" cx="486" cy="419" r="5.5"/>
<circle class="n l" cx="466" cy="351" r="5.5"/>
<circle class="n l" cx="467" cy="348" r="5.5"/>
<circle class="n t" cx="512" cy="315" r="5.5"/>
<circle class="n t" cx="516" cy="314" r="5.5"/>
<circle class="n g" cx="613" cy="296" r="3.4"/>
<circle class="n g" cx="619" cy="305" r="3.4"/>
<circle class="n g" cx="611" cy="294" r="3.4"/>
<circle class="n g" cx="615" cy="299" r="3.4"/>
<circle class="n g" cx="603" cy="285" r="3.4"/>
<circle class="n g" cx="614" cy="297" r="3.4"/>
<circle class="n g" cx="610" cy="293" r="3.4"/>
<circle class="n g" cx="618" cy="302" r="3.4"/>
<circle class="n g" cx="619" cy="304" r="3.4"/>
<circle class="n g" cx="604" cy="286" r="3.4"/>
<circle class="n g" cx="616" cy="300" r="3.4"/>
<circle class="n l" cx="421" cy="305" r="3.4"/>
<circle class="n l" cx="425" cy="299" r="3.4"/>
<circle class="n g" cx="608" cy="290" r="3.4"/>
<circle class="n g" cx="609" cy="292" r="3.4"/>
<circle class="n g" cx="612" cy="295" r="3.4"/>
<circle class="n g" cx="617" cy="301" r="3.4"/>
<circle class="n g" cx="606" cy="288" r="3.4"/>
<circle class="n l" cx="414" cy="316" r="3.4"/>
<circle class="n l" cx="417" cy="310" r="3.4"/>
<circle class="n t" cx="520" cy="252" r="3.4"/>
<circle class="n t" cx="528" cy="252" r="3.4"/>
<circle class="n g" cx="605" cy="287" r="3.4"/>
<circle class="n g" cx="607" cy="289" r="3.4"/>
<circle class="n c" cx="377" cy="484" r="3.4"/>
<circle class="n g" cx="610" cy="530" r="3.4"/>
<circle class="n g" cx="678" cy="282" r="3.4"/>
<circle class="n c" cx="393" cy="502" r="3.4"/>
<circle class="n g" cx="606" cy="532" r="3.4"/>
<circle class="n g" cx="677" cy="280" r="3.4"/>
<circle class="n g" cx="683" cy="290" r="3.4"/>
<circle class="n g" cx="685" cy="294" r="3.4"/>
<circle class="n g" cx="616" cy="527" r="3.4"/>
<circle class="n c" cx="339" cy="394" r="3.4"/>
<circle class="n c" cx="387" cy="497" r="3.4"/>
<circle class="n g" cx="679" cy="284" r="3.4"/>
<circle class="n c" cx="367" cy="471" r="3.4"/>
<circle class="n g" cx="684" cy="292" r="3.4"/>
<circle class="n t" cx="545" cy="192" r="3.4"/>
<circle class="n g" cx="673" cy="274" r="3.4"/>
<circle class="n g" cx="675" cy="276" r="3.4"/>
<circle class="n g" cx="676" cy="278" r="3.4"/>
<circle class="n g" cx="612" cy="529" r="3.4"/>
<circle class="n g" cx="682" cy="288" r="3.4"/>
<circle class="n g" cx="672" cy="272" r="3.4"/>
<circle class="n g" cx="614" cy="528" r="3.4"/>
<circle class="n g" cx="608" cy="531" r="3.4"/>
<circle class="n g" cx="686" cy="296" r="3.4"/>
<circle class="n g" cx="680" cy="286" r="3.4"/>
<circle class="n c" cx="382" cy="491" r="3.4"/>
<circle class="n c" cx="372" cy="478" r="3.4"/>
<circle class="n g" cx="604" cy="534" r="3.4"/>
<circle class="n l" cx="403" cy="233" r="3.4"/>
<circle class="n l" cx="436" cy="210" r="3.4"/>
<circle class="n l" cx="428" cy="215" r="3.4"/>
<circle class="n l" cx="411" cy="226" r="3.4"/>
<circle class="n l" cx="445" cy="206" r="3.4"/>
<circle class="n l" cx="419" cy="221" r="3.4"/>
<circle class="n g" cx="571" cy="611" r="3.4"/>
<circle class="n g" cx="616" cy="597" r="3.4"/>
<circle class="n g" cx="518" cy="616" r="3.4"/>
<circle class="n g" cx="621" cy="594" r="3.4"/>
<circle class="n g" cx="410" cy="590" r="3.4"/>
<circle class="n g" cx="537" cy="615" r="3.4"/>
<circle class="n g" cx="448" cy="605" r="3.4"/>
<circle class="n g" cx="540" cy="615" r="3.4"/>
<circle class="n g" cx="408" cy="589" r="3.4"/>
<circle class="n g" cx="630" cy="590" r="3.4"/>
<circle class="n g" cx="556" cy="613" r="3.4"/>
<circle class="n g" cx="419" cy="594" r="3.4"/>
<circle class="n g" cx="525" cy="616" r="3.4"/>
<circle class="n g" cx="466" cy="610" r="3.4"/>
<circle class="n g" cx="399" cy="584" r="3.4"/>
<circle class="n g" cx="500" cy="615" r="3.4"/>
<circle class="n g" cx="481" cy="613" r="3.4"/>
<circle class="n g" cx="565" cy="612" r="3.4"/>
<circle class="n g" cx="550" cy="614" r="3.4"/>
<circle class="n g" cx="562" cy="612" r="3.4"/>
<circle class="n g" cx="413" cy="591" r="3.4"/>
<circle class="n g" cx="568" cy="611" r="3.4"/>
<circle class="n g" cx="405" cy="587" r="3.4"/>
<circle class="n g" cx="457" cy="608" r="3.4"/>
<circle class="n g" cx="610" cy="599" r="3.4"/>
<circle class="n g" cx="577" cy="609" r="3.4"/>
<circle class="n g" cx="463" cy="609" r="3.4"/>
<circle class="n g" cx="484" cy="613" r="3.4"/>
<circle class="n g" cx="580" cy="608" r="3.4"/>
<circle class="n g" cx="451" cy="606" r="3.4"/>
<circle class="n g" cx="478" cy="612" r="3.4"/>
<circle class="n g" cx="528" cy="616" r="3.4"/>
<circle class="n g" cx="475" cy="612" r="3.4"/>
<circle class="n g" cx="460" cy="608" r="3.4"/>
<circle class="n g" cx="436" cy="601" r="3.4"/>
<circle class="n g" cx="424" cy="597" r="3.4"/>
<circle class="n g" cx="506" cy="616" r="3.4"/>
<circle class="n g" cx="583" cy="608" r="3.4"/>
<circle class="n g" cx="439" cy="602" r="3.4"/>
<circle class="n g" cx="487" cy="614" r="3.4"/>
<circle class="n g" cx="490" cy="614" r="3.4"/>
<circle class="n g" cx="512" cy="616" r="3.4"/>
<circle class="n g" cx="531" cy="616" r="3.4"/>
<circle class="n g" cx="592" cy="605" r="3.4"/>
<circle class="n g" cx="442" cy="603" r="3.4"/>
<circle class="n g" cx="598" cy="603" r="3.4"/>
<circle class="n g" cx="624" cy="593" r="3.4"/>
<circle class="n g" cx="534" cy="616" r="3.4"/>
<circle class="n g" cx="416" cy="593" r="3.4"/>
<circle class="n g" cx="604" cy="601" r="3.4"/>
<circle class="n g" cx="595" cy="604" r="3.4"/>
<circle class="n g" cx="427" cy="598" r="3.4"/>
<circle class="n g" cx="553" cy="614" r="3.4"/>
<circle class="n g" cx="589" cy="606" r="3.4"/>
<circle class="n c" cx="276" cy="369" r="3.4"/>
<circle class="n c" cx="276" cy="358" r="3.4"/>
<circle class="n c" cx="280" cy="326" r="3.4"/>
<circle class="n g" cx="422" cy="595" r="3.4"/>
<circle class="n g" cx="433" cy="600" r="3.4"/>
<circle class="n g" cx="586" cy="607" r="3.4"/>
<circle class="n g" cx="627" cy="591" r="3.4"/>
<circle class="n g" cx="454" cy="607" r="3.4"/>
<circle class="n g" cx="430" cy="599" r="3.4"/>
<circle class="n g" cx="402" cy="586" r="3.4"/>
<circle class="n g" cx="607" cy="600" r="3.4"/>
<circle class="n c" cx="289" cy="294" r="3.4"/>
<circle class="n c" cx="276" cy="380" r="3.4"/>
<circle class="n c" cx="286" cy="304" r="3.4"/>
<circle class="n c" cx="279" cy="336" r="3.4"/>
<circle class="n c" cx="277" cy="391" r="3.4"/>
<circle class="n c" cx="277" cy="347" r="3.4"/>
<circle class="n c" cx="283" cy="315" r="3.4"/>
<circle class="n l" cx="432" cy="144" r="3.4"/>
<circle class="n l" cx="471" cy="133" r="3.4"/>
<circle class="n l" cx="458" cy="136" r="3.4"/>
<circle class="n l" cx="445" cy="140" r="3.4"/>
<circle class="n g" cx="613" cy="598" r="3.4"/>
<circle class="n g" cx="559" cy="613" r="3.4"/>
<circle class="n g" cx="515" cy="616" r="3.4"/>
<circle class="n g" cx="546" cy="615" r="3.4"/>
<circle class="n g" cx="522" cy="616" r="3.4"/>
<circle class="n g" cx="472" cy="611" r="3.4"/>
<circle class="n g" cx="543" cy="615" r="3.4"/>
<circle class="n g" cx="494" cy="615" r="3.4"/>
<circle class="n g" cx="469" cy="611" r="3.4"/>
<circle class="n g" cx="445" cy="604" r="3.4"/>
<circle class="n g" cx="509" cy="616" r="3.4"/>
<circle class="n g" cx="601" cy="602" r="3.4"/>
<circle class="n g" cx="497" cy="615" r="3.4"/>
<circle class="n g" cx="618" cy="595" r="3.4"/>
<circle class="n t" cx="635" cy="157" r="3.4"/>
<circle class="n t" cx="619" cy="149" r="3.4"/>
<circle class="n t" cx="603" cy="143" r="3.4"/>
<circle class="n t" cx="587" cy="137" r="3.4"/>
<circle class="n g" cx="503" cy="615" r="3.4"/>
<circle class="n g" cx="574" cy="610" r="3.4"/>
<circle class="n g cob" cx="709" cy="308" r="3.4"/>
<circle class="n g cob" cx="718" cy="350" r="3.4"/>
<circle class="n g cob" cx="716" cy="406" r="3.4"/>
<circle class="n c cob" cx="344" cy="465" r="3.4"/>
<circle class="n g cob" cx="709" cy="311" r="3.4"/>
<circle class="n g cob" cx="719" cy="373" r="3.4"/>
<circle class="n g cob" cx="689" cy="477" r="3.4"/>
<circle class="n g cob" cx="718" cy="388" r="3.4"/>
<circle class="n g cob" cx="685" cy="483" r="3.4"/>
<circle class="n g cob" cx="702" cy="452" r="3.4"/>
<circle class="n g cob" cx="719" cy="381" r="3.4"/>
<circle class="n g cob" cx="715" cy="333" r="3.4"/>
<circle class="n g cob" cx="631" cy="537" r="3.4"/>
<circle class="n g cob" cx="715" cy="330" r="3.4"/>
<circle class="n c cob" cx="336" cy="448" r="3.4"/>
<circle class="n g cob" cx="714" cy="416" r="3.4"/>
<circle class="n g cob" cx="706" cy="301" r="3.4"/>
<circle class="n g cob" cx="718" cy="356" r="3.4"/>
<circle class="n g cob" cx="702" cy="292" r="3.4"/>
<circle class="n g cob" cx="712" cy="318" r="3.4"/>
<circle class="n g cob" cx="703" cy="294" r="3.4"/>
<circle class="n g cob" cx="657" cy="516" r="3.4"/>
<circle class="n g cob" cx="719" cy="386" r="3.4"/>
<circle class="n g cob" cx="713" cy="325" r="3.4"/>
<circle class="n g cob" cx="708" cy="306" r="3.4"/>
<circle class="n g cob" cx="711" cy="316" r="3.4"/>
<circle class="n g cob" cx="712" cy="424" r="3.4"/>
<circle class="n g cob" cx="719" cy="383" r="3.4"/>
<circle class="n g cob" cx="719" cy="371" r="3.4"/>
<circle class="n l cob" cx="376" cy="235" r="3.4"/>
<circle class="n g cob" cx="719" cy="366" r="3.4"/>
<circle class="n g cob" cx="719" cy="376" r="3.4"/>
<circle class="n g cob" cx="706" cy="443" r="3.4"/>
<circle class="n g cob" cx="713" cy="421" r="3.4"/>
<circle class="n g cob" cx="686" cy="481" r="3.4"/>
<circle class="n g cob" cx="655" cy="518" r="3.4"/>
<circle class="n g cob" cx="636" cy="534" r="3.4"/>
<circle class="n g cob" cx="662" cy="511" r="3.4"/>
<circle class="n g cob" cx="704" cy="448" r="3.4"/>
<circle class="n g cob" cx="640" cy="531" r="3.4"/>
<circle class="n g cob" cx="713" cy="323" r="3.4"/>
<circle class="n g cob" cx="697" cy="464" r="3.4"/>
<circle class="n g cob" cx="719" cy="378" r="3.4"/>
<circle class="n g cob" cx="677" cy="494" r="3.4"/>
<circle class="n g cob" cx="698" cy="461" r="3.4"/>
<circle class="n g cob" cx="692" cy="473" r="3.4"/>
<circle class="n g cob" cx="714" cy="328" r="3.4"/>
<circle class="n g cob" cx="661" cy="513" r="3.4"/>
<circle class="n g cob" cx="659" cy="514" r="3.4"/>
<circle class="n c cob" cx="324" cy="405" r="3.4"/>
<circle class="n g cob" cx="717" cy="401" r="3.4"/>
<circle class="n g cob" cx="676" cy="496" r="3.4"/>
<circle class="n g cob" cx="642" cy="529" r="3.4"/>
<circle class="n g cob" cx="682" cy="488" r="3.4"/>
<circle class="n g cob" cx="646" cy="526" r="3.4"/>
<circle class="n g cob" cx="712" cy="320" r="3.4"/>
<circle class="n g cob" cx="703" cy="450" r="3.4"/>
<circle class="n g cob" cx="666" cy="507" r="3.4"/>
<circle class="n g cob" cx="709" cy="433" r="3.4"/>
<circle class="n g cob" cx="719" cy="368" r="3.4"/>
<circle class="n g cob" cx="718" cy="353" r="3.4"/>
<circle class="n g cob" cx="644" cy="528" r="3.4"/>
<circle class="n g cob" cx="716" cy="340" r="3.4"/>
<circle class="n g cob" cx="681" cy="490" r="3.4"/>
<circle class="n c cob" cx="340" cy="457" r="3.4"/>
<circle class="n c cob" cx="333" cy="440" r="3.4"/>
<circle class="n g cob" cx="653" cy="520" r="3.4"/>
<circle class="n g cob" cx="638" cy="533" r="3.4"/>
<circle class="n g cob" cx="674" cy="498" r="3.4"/>
<circle class="n g cob" cx="673" cy="500" r="3.4"/>
<circle class="n g cob" cx="679" cy="492" r="3.4"/>
<circle class="n g cob" cx="719" cy="361" r="3.4"/>
<circle class="n g cob" cx="716" cy="404" r="3.4"/>
<circle class="n g cob" cx="648" cy="525" r="3.4"/>
<circle class="n g cob" cx="716" cy="335" r="3.4"/>
<circle class="n g cob" cx="683" cy="485" r="3.4"/>
<circle class="n g cob" cx="717" cy="345" r="3.4"/>
<circle class="n g cob" cx="629" cy="538" r="3.4"/>
<circle class="n g cob" cx="717" cy="399" r="3.4"/>
<circle class="n l cob" cx="384" cy="227" r="3.4"/>
<circle class="n g cob" cx="707" cy="304" r="3.4"/>
<circle class="n g cob" cx="668" cy="505" r="3.4"/>
<circle class="n g cob" cx="650" cy="523" r="3.4"/>
<circle class="n g cob" cx="627" cy="540" r="3.4"/>
<circle class="n g cob" cx="718" cy="348" r="3.4"/>
<circle class="n g cob" cx="688" cy="479" r="3.4"/>
<circle class="n g cob" cx="716" cy="338" r="3.4"/>
<circle class="n g cob" cx="693" cy="470" r="3.4"/>
<circle class="n g cob" cx="710" cy="431" r="3.4"/>
<circle class="n g cob" cx="700" cy="457" r="3.4"/>
<circle class="n g cob" cx="701" cy="455" r="3.4"/>
<circle class="n g cob" cx="695" cy="466" r="3.4"/>
<circle class="n g cob" cx="651" cy="521" r="3.4"/>
<circle class="n g cob" cx="690" cy="475" r="3.4"/>
<circle class="n g cob" cx="717" cy="343" r="3.4"/>
<circle class="n g cob" cx="710" cy="313" r="3.4"/>
<circle class="n g cob" cx="704" cy="296" r="3.4"/>
<circle class="n g cob" cx="718" cy="396" r="3.4"/>
<circle class="n g cob" cx="669" cy="503" r="3.4"/>
<circle class="n c cob" cx="328" cy="423" r="3.4"/>
<circle class="n g cob" cx="719" cy="358" r="3.4"/>
<circle class="n c cob" cx="348" cy="472" r="3.4"/>
<circle class="n c cob" cx="326" cy="414" r="3.4"/>
<circle class="n g cob" cx="712" cy="426" r="3.4"/>
<circle class="n g cob" cx="671" cy="502" r="3.4"/>
<circle class="n g cob" cx="715" cy="411" r="3.4"/>
<circle class="n g cob" cx="705" cy="299" r="3.4"/>
<circle class="n t cob" cx="561" cy="177" r="3.4"/>
<circle class="n g cob" cx="715" cy="414" r="3.4"/>
<circle class="n g cob" cx="707" cy="440" r="3.4"/>
<circle class="n g cob" cx="719" cy="363" r="3.4"/>
<circle class="n g cob" cx="718" cy="394" r="3.4"/>
<circle class="n g cob" cx="705" cy="445" r="3.4"/>
<circle class="n g cob" cx="694" cy="468" r="3.4"/>
<circle class="n g cob" cx="633" cy="535" r="3.4"/>
<circle class="n l cob" cx="369" cy="243" r="3.4"/>
<circle class="n g cob" cx="664" cy="509" r="3.4"/>
<circle class="n g cob" cx="711" cy="428" r="3.4"/>
<circle class="n c cob" cx="330" cy="432" r="3.4"/>
<circle class="n g cob" cx="718" cy="391" r="3.4"/>
<circle class="n g cob" cx="713" cy="419" r="3.4"/>
<circle class="n g cob" cx="708" cy="438" r="3.4"/>
<circle class="n g cob" cx="709" cy="436" r="3.4"/>
<circle class="n g cob" cx="716" cy="409" r="3.4"/>
<circle class="n g cob" cx="699" cy="459" r="3.4"/>
<circle class="n g" cx="583" cy="270" r="3.4"/>
<circle class="n g" cx="585" cy="271" r="3.4"/>
<circle class="n g" cx="586" cy="272" r="3.4"/>
<circle class="n g" cx="587" cy="273" r="3.4"/>
<circle class="n c" cx="440" cy="462" r="3.4"/>
<circle class="n g" cx="588" cy="273" r="3.4"/>
<circle class="n g" cx="590" cy="274" r="3.4"/>
<circle class="n g" cx="591" cy="275" r="3.4"/>
<circle class="n g" cx="592" cy="276" r="3.4"/>
<circle class="n g" cx="593" cy="277" r="3.4"/>
<circle class="n g" cx="595" cy="278" r="3.4"/>
<circle class="n g" cx="596" cy="279" r="3.4"/>
<circle class="n g" cx="597" cy="280" r="3.4"/>
<circle class="n g" cx="598" cy="281" r="3.4"/>
<circle class="n g" cx="599" cy="282" r="3.4"/>
<circle class="n g" cx="600" cy="283" r="3.4"/>
<circle class="n g" cx="602" cy="284" r="3.4"/>
<text class="sm" x="550" y="313" text-anchor="middle">zfc-axioms</text>
<text class="sm" x="549" y="313" text-anchor="middle">ordinals</text>
<text class="sm" x="490" y="413" text-anchor="middle">cat-basics</text>
<text class="sm" x="488" y="411" text-anchor="middle">functors</text>
<text class="sm" x="483" y="408" text-anchor="middle">nat-trans</text>
<text class="sm" x="486" y="410" text-anchor="middle">limits</text>
<text class="sm" x="466" y="342" text-anchor="middle">fol-deduction</text>
<text class="sm" x="467" y="339" text-anchor="middle">fol-metatheory</text>
<text class="sm" x="512" y="306" text-anchor="middle">cic</text>
<text class="sm" x="516" y="305" text-anchor="middle">lean-kernel</text>
<text class="tt" x="860" y="620">las 9 tacticas, aparte</text>
<text class="sm" x="860" y="638">453 aristas entran · 0 salen</text>
<circle class="n t" cx="866" cy="660" r="3.4"/>
<text class="sm" x="876" y="664">aesop</text>
<circle class="n t" cx="866" cy="673" r="3.4"/>
<text class="sm" x="876" y="677">apply</text>
<circle class="n t" cx="866" cy="686" r="3.4"/>
<text class="sm" x="876" y="690">calc</text>
<circle class="n t" cx="866" cy="699" r="3.4"/>
<text class="sm" x="876" y="703">exact</text>
<circle class="n t" cx="866" cy="712" r="3.4"/>
<text class="sm" x="876" y="716">induction</text>
<circle class="n t" cx="866" cy="725" r="3.4"/>
<text class="sm" x="876" y="729">omega</text>
<circle class="n t" cx="866" cy="738" r="3.4"/>
<text class="sm" x="876" y="742">rewrite</text>
<circle class="n t" cx="866" cy="751" r="3.4"/>
<text class="sm" x="876" y="755">ring</text>
<circle class="n t" cx="866" cy="764" r="3.4"/>
<text class="sm" x="876" y="768">simp</text>
<circle class="n g" cx="866" cy="60" r="4"/>
<text class="sm" x="876" y="64">SET  246</text>
<circle class="n c" cx="866" cy="79" r="4"/>
<text class="sm" x="876" y="83">CAT  31</text>
<circle class="n l" cx="866" cy="98" r="4"/>
<text class="sm" x="876" y="102">LOG  19</text>
<circle class="n t" cx="866" cy="117" r="4"/>
<text class="sm" x="876" y="121">TYPE 10</text>
<circle class="n g cob" cx="866" cy="136" r="4"/>
<text class="sm" x="876" y="140">125 generados, sin interpretar</text>
<text class="tt" x="860" y="174">298 nodos · 1722 morfismos</text>
<text class="sm" x="860" y="189">se dibujan las 297 dependencias entre curados</text>
</svg>